<svg width="14" height="14" viewBox="0 0 14 14" fill="none" xmlns="http://www.w3.org/2000/svg">
<path d="M10.9999 5.40001C11.4872 5.40002 11.963 5.25169 12.364 4.97473C12.7649 4.69777 13.0721 4.3053 13.2446 3.84953C13.4171 3.39376 13.4467 2.89628 13.3296 2.42324C13.2125 1.95019 12.9542 1.52401 12.589 1.20137C12.2237 0.878721 11.769 0.674899 11.2851 0.617005C10.8012 0.559111 10.3112 0.649888 9.88016 0.877266C9.44914 1.10464 9.09754 1.45785 8.87214 1.88991C8.64673 2.32197 8.55819 2.81241 8.61829 3.29601L4.66629 5.27201C4.32728 4.94509 3.89957 4.72514 3.43645 4.63956C2.97333 4.55398 2.49526 4.60656 2.0618 4.79073C1.62834 4.9749 1.25865 5.28254 0.998781 5.67531C0.738908 6.06809 0.600342 6.52865 0.600342 6.99961C0.600342 7.47057 0.738908 7.93113 0.998781 8.3239C1.25865 8.71668 1.62834 9.02431 2.0618 9.20849C2.49526 9.39266 2.97333 9.44523 3.43645 9.35965C3.89957 9.27407 4.32728 9.05413 4.66629 8.72721L8.61829 10.7032C8.54829 11.265 8.67914 11.8335 8.98772 12.3081C9.29629 12.7827 9.76273 13.133 10.3046 13.297C10.8464 13.4611 11.4288 13.4282 11.9488 13.2044C12.4688 12.9805 12.893 12.5801 13.1463 12.0738C13.3996 11.5674 13.4657 10.9879 13.333 10.4375C13.2004 9.88715 12.8774 9.4014 12.4212 9.06612C11.9651 8.73084 11.405 8.56761 10.8402 8.60529C10.2753 8.64296 9.7419 8.87912 9.33429 9.27201L5.38229 7.29601C5.40651 7.09942 5.40651 6.9006 5.38229 6.70401L9.33429 4.72801C9.76469 5.14401 10.3519 5.40001 10.9999 5.40001Z" fill="white"/>
</svg>
